<?xml version="1.0" encoding="utf-8"?>
<!-- Generator: Adobe Illustrator 15.0.0, SVG Export Plug-In . SVG Version: 6.00 Build 0)  -->
<!DOCTYPE svg PUBLIC "-//W3C//DTD SVG 1.1//EN" "http://www.w3.org/Graphics/SVG/1.1/DTD/svg11.dtd">
<svg version="1.1" id="Слой_1" xmlns="http://www.w3.org/2000/svg" xmlns:xlink="http://www.w3.org/1999/xlink" x="0px" y="0px"
	 width="94px" height="246px" viewBox="0 0 94 246" enable-background="new 0 0 94 246" xml:space="preserve">
<polygon fill="#A4D49A" points="0,-0.094 93.714,-0.094 83.547,18.242 93.714,35.808 0,35.808 "/>
<polygon fill="#B8B6DB" points="0,36.096 93.714,36.096 83.547,54.433 93.714,71.999 0,71.999 "/>
<polygon fill="#A4D49A" points="0,72.287 93.714,72.287 83.547,90.623 93.714,108.188 0,108.188 "/>
<polygon fill="#B8B6DB" points="0,108.477 93.714,108.477 83.547,126.813 93.714,144.38 0,144.38 "/>
<polygon fill="#A4D49A" points="0,144.667 93.714,144.667 83.547,163.003 93.714,180.57 0,180.57 "/>
<polygon fill="#B8B6DB" points="0,180.766 93.714,180.766 83.547,199.102 93.714,216.667 0,216.667 "/>
<ellipse fill="#FFFFFF" cx="65.269" cy="7.417" rx="2.337" ry="2.429"/>
<path fill="#FFFFFF" d="M66.598,14.292v3.156l2.39,1.605c0,0,0.83,0.213,1.298-0.428s0-1.391,0-1.391L66.598,14.292z"/>
<path fill="#FFFFFF" d="M62.116,20.021l1.96,1.75l-5.461,8.801c0,0-1.307,0.8-1.774,0.25c-0.466-0.55-0.326-1.8-0.326-1.8
	L62.116,20.021z"/>
<path fill="#FFFFFF" d="M57.478,18.875c0,0,0.502,0.87,1.053,0.916c0.55,0.046,1.237-0.916,1.237-0.916v-4.08l2.66-1.695v5.454
	l0.228,0.825c0,0,4.4,4.105,4.631,4.675c0.228,0.57,2.428,6.043,2.428,6.043s1.009,1.335,1.834,0.694
	c0.824-0.642,0.32-1.834,0.32-1.834l-2.154-5.775c0,0-0.144-0.763-0.412-1.007c-0.269-0.245-0.757-0.688-0.757-0.688l-1.947-1.88
	l-0.505-0.521l-0.183-7.224l-0.138-0.55l-1.696-1.238h-0.824l-4.4,2.52c0,0-1.374,0.963-1.374,1.375
	C57.478,14.383,57.478,18.875,57.478,18.875z"/>
<ellipse fill="#FFFFFF" cx="65.087" cy="43.606" rx="2.336" ry="2.429"/>
<path fill="#FFFFFF" d="M66.416,50.481v3.157l2.389,1.605c0,0,0.832,0.214,1.3-0.428c0.468-0.642,0-1.391,0-1.391L66.416,50.481z"/>
<path fill="#FFFFFF" d="M61.936,56.21l1.96,1.751l-5.462,8.8c0,0-1.307,0.8-1.774,0.25c-0.466-0.549-0.326-1.8-0.326-1.8
	L61.936,56.21z"/>
<path fill="#FFFFFF" d="M57.295,55.065c0,0,0.504,0.871,1.055,0.917c0.549,0.046,1.236-0.917,1.236-0.917v-4.08l2.659-1.695v5.454
	l0.229,0.825c0,0,4.401,4.105,4.63,4.676c0.229,0.57,2.43,6.043,2.43,6.043s1.009,1.336,1.833,0.694
	c0.825-0.642,0.32-1.833,0.32-1.833l-2.153-5.776c0,0-0.145-0.763-0.413-1.008s-0.757-0.688-0.757-0.688l-1.947-1.88l-0.505-0.52
	l-0.182-7.225l-0.138-0.55l-1.696-1.237H63.07l-4.399,2.52c0,0-1.376,0.963-1.376,1.376C57.295,50.573,57.295,55.065,57.295,55.065z
	"/>
<path fill="#FFFFFF" d="M70.561,87.426c0-0.584-0.473-1.055-1.054-1.055h-2.049l-4.267-3.939c-0.418-0.384-1.063-0.371-1.462,0.03
	l-3.646,3.647c-0.2,0.2-0.311,0.472-0.309,0.754c0.002,0.284,0.117,0.553,0.322,0.75l5.785,5.577v5.131
	c0,0.583,0.473,1.055,1.055,1.055s1.054-0.472,1.054-1.055v-5.581c0-0.286-0.116-0.559-0.322-0.758l-5.334-5.143l2.171-2.171
	L66.33,88.2c0.195,0.18,0.45,0.28,0.716,0.28h2.461C70.088,88.48,70.561,88.009,70.561,87.426"/>
<path fill="#FFFFFF" d="M55.445,90.59c-3.496,0-6.327,2.833-6.327,6.327c0,3.495,2.831,6.328,6.327,6.328
	c3.494,0,6.327-2.833,6.327-6.328C61.772,93.423,58.939,90.59,55.445,90.59 M55.445,101.134c-2.326,0-4.218-1.892-4.218-4.218
	s1.892-4.218,4.218-4.218c2.325,0,4.218,1.892,4.218,4.218S57.771,101.134,55.445,101.134"/>
<path fill="#FFFFFF" d="M66.342,82.153c1.359,0,2.461-1.102,2.461-2.461c0-1.358-1.102-2.46-2.461-2.46
	c-1.358,0-2.46,1.102-2.46,2.46C63.882,81.051,64.983,82.153,66.342,82.153"/>
<path fill="#FFFFFF" d="M74.428,90.59c-3.495,0-6.328,2.833-6.328,6.327c0,3.495,2.833,6.328,6.328,6.328
	c3.494,0,6.327-2.833,6.327-6.328C80.755,93.423,77.922,90.59,74.428,90.59 M74.428,101.134c-2.326,0-4.22-1.892-4.22-4.218
	s1.894-4.218,4.22-4.218c2.325,0,4.219,1.892,4.219,4.218S76.753,101.134,74.428,101.134"/>
<path fill="#FFFFFF" d="M69.791,123.616c0-0.583-0.472-1.054-1.053-1.054h-2.051l-4.266-3.939c-0.418-0.383-1.063-0.37-1.461,0.029
	l-3.646,3.647c-0.201,0.201-0.313,0.472-0.31,0.756c0.003,0.283,0.118,0.552,0.322,0.75l5.785,5.577v5.131
	c0,0.581,0.472,1.054,1.055,1.054s1.055-0.473,1.055-1.054v-5.58c0-0.287-0.116-0.561-0.322-0.76l-5.335-5.141l2.171-2.171
	l3.826,3.531c0.195,0.18,0.449,0.279,0.715,0.279h2.462C69.319,124.671,69.791,124.199,69.791,123.616"/>
<path fill="#FFFFFF" d="M54.677,126.78c-3.496,0-6.328,2.833-6.328,6.327s2.832,6.327,6.328,6.327c3.494,0,6.327-2.833,6.327-6.327
	S58.171,126.78,54.677,126.78 M54.677,137.325c-2.326,0-4.218-1.894-4.218-4.218c0-2.325,1.892-4.219,4.218-4.219
	c2.324,0,4.218,1.894,4.218,4.219C58.895,135.432,57.001,137.325,54.677,137.325"/>
<path fill="#FFFFFF" d="M65.573,118.343c1.358,0,2.461-1.101,2.461-2.459c0-1.36-1.103-2.461-2.461-2.461s-2.461,1.101-2.461,2.461
	C63.112,117.242,64.215,118.343,65.573,118.343"/>
<path fill="#FFFFFF" d="M73.658,126.78c-3.494,0-6.327,2.833-6.327,6.327s2.833,6.327,6.327,6.327c3.495,0,6.328-2.833,6.328-6.327
	S77.153,126.78,73.658,126.78 M73.658,137.325c-2.325,0-4.219-1.894-4.219-4.218c0-2.325,1.894-4.219,4.219-4.219
	s4.219,1.894,4.219,4.219C77.877,135.432,75.983,137.325,73.658,137.325"/>
<path fill="#FFFFFF" d="M75.845,161.092c0.004-0.082,0.012-0.161,0.012-0.242l-1.443-7.358l-0.021-0.092
	c-0.654-2.428-2.225-3.878-4.199-3.878H56.033c-1.975,0-3.544,1.45-4.199,3.878l-1.438,7.171l-0.027,0.279
	c0,0.081,0.009,0.16,0.013,0.242c-1.653,0.581-2.845,2.155-2.845,4.004v3.541c0,1.847,1.185,3.416,2.832,4v1.664
	c0,0.782,0.633,1.415,1.416,1.415h1.416c0.782,0,1.417-0.633,1.417-1.415v-1.416h16.99v1.416c0,0.782,0.634,1.415,1.417,1.415h1.415
	c0.783,0,1.416-0.633,1.416-1.415v-1.664c1.646-0.584,2.832-2.153,2.832-4v-3.541C78.688,163.247,77.498,161.673,75.845,161.092
	 M52.492,169.344c-1.171,0-2.123-0.951-2.123-2.123c0-1.171,0.952-2.125,2.123-2.125c1.172,0,2.126,0.954,2.126,2.125
	C54.618,168.393,53.664,169.344,52.492,169.344 M53.229,160.85l1.351-6.754c0.156-0.558,0.588-1.743,1.454-1.743h14.159
	c0.865,0,1.297,1.186,1.454,1.743l1.35,6.754H53.229z M73.732,169.344c-1.171,0-2.124-0.951-2.124-2.123
	c0-1.171,0.953-2.125,2.124-2.125c1.172,0,2.124,0.954,2.124,2.125C75.856,168.393,74.904,169.344,73.732,169.344"/>
<path fill="#FFFFFF" d="M75.845,197.281c0.004-0.081,0.012-0.16,0.012-0.242l-1.443-7.357l-0.021-0.092
	c-0.654-2.428-2.225-3.878-4.199-3.878H56.033c-1.975,0-3.544,1.45-4.199,3.878l-1.438,7.171l-0.027,0.278
	c0,0.082,0.009,0.161,0.013,0.242c-1.653,0.582-2.845,2.156-2.845,4.007v3.538c0,1.847,1.185,3.417,2.832,4.001v1.663
	c0,0.783,0.633,1.418,1.416,1.418h1.416c0.782,0,1.417-0.635,1.417-1.418v-1.415h16.99v1.415c0,0.783,0.634,1.418,1.417,1.418h1.415
	c0.783,0,1.416-0.635,1.416-1.418v-1.663c1.646-0.584,2.832-2.154,2.832-4.001v-3.538C78.688,199.438,77.498,197.863,75.845,197.281
	 M52.492,205.534c-1.171,0-2.123-0.951-2.123-2.123s0.952-2.123,2.123-2.123c1.172,0,2.126,0.951,2.126,2.123
	S53.664,205.534,52.492,205.534 M53.229,197.039l1.351-6.754c0.156-0.557,0.588-1.742,1.454-1.742h14.159
	c0.865,0,1.297,1.186,1.454,1.742l1.35,6.754H53.229z M73.732,205.534c-1.171,0-2.124-0.951-2.124-2.123s0.953-2.123,2.124-2.123
	c1.172,0,2.124,0.951,2.124,2.123S74.904,205.534,73.732,205.534"/>
</svg>
