<?xml version="1.0" encoding="utf-8"?>
<!-- Generator: Adobe Illustrator 15.0.0, SVG Export Plug-In . SVG Version: 6.00 Build 0)  -->
<!DOCTYPE svg PUBLIC "-//W3C//DTD SVG 1.1//EN" "http://www.w3.org/Graphics/SVG/1.1/DTD/svg11.dtd">
<svg version="1.1" id="Слой_1" xmlns="http://www.w3.org/2000/svg" xmlns:xlink="http://www.w3.org/1999/xlink" x="0px" y="0px"
	 width="40px" height="40px" viewBox="0 0 40 40" enable-background="new 0 0 40 40" xml:space="preserve">
<path fill="#565777" d="M14.784,30.071L7.398,32.18c0.383,4.839,2.739,8.729,6.777,7.636c4.206-1.137,2.284-6.85,0.636-9.691
	C14.8,30.104,14.793,30.088,14.784,30.071z"/>
<path fill="#565777" d="M31.336,0.001c-2.727,0-4.717,1.844-6.08,6.561c-1.364,4.717-0.398,7.162,0.113,8.638
	c0.358,1.031,0.927,2.955,0.684,4.987l6.842,1.955c0.906-4.705,3.793-6.727,3.444-14.955C36.022-0.256,31.336,0.001,31.336,0.001z"
	/>
<path fill="#565777" d="M14.63,22.483c0.511-1.477,1.477-3.921,0.113-8.638c-1.364-4.717-3.353-6.561-6.081-6.561
	c0,0-4.686-0.259-5,7.186c-0.349,8.229,2.537,10.25,3.443,14.955l6.843-1.955C13.704,25.438,14.273,23.515,14.63,22.483z"/>
<path fill="#565777" d="M25.188,22.84c-1.649,2.842-3.569,8.555,0.636,9.691c4.038,1.093,6.394-2.796,6.775-7.636l-7.384-2.108
	C25.206,22.804,25.199,22.82,25.188,22.84z"/>
</svg>
