<?xml version="1.0" encoding="utf-8"?>
<!-- Generator: Adobe Illustrator 15.0.0, SVG Export Plug-In . SVG Version: 6.00 Build 0)  -->
<!DOCTYPE svg PUBLIC "-//W3C//DTD SVG 1.1//EN" "http://www.w3.org/Graphics/SVG/1.1/DTD/svg11.dtd">
<svg version="1.1" id="Слой_1" xmlns="http://www.w3.org/2000/svg" xmlns:xlink="http://www.w3.org/1999/xlink" x="0px" y="0px"
	 width="40px" height="40px" viewBox="0 0 40 40" enable-background="new 0 0 40 40" xml:space="preserve">
<path fill="#565777" d="M33.353,19.48c0-5.398-3.21-10.039-7.821-12.142c-1.439-0.605-2.194,0.497-2.194,1.389v7.095
	c0,0.691,0.562,1.154,1.252,1.154h2.557c1.226,0,1.569,0.941,0.762,1.971l-6.438,8.205c-0.808,1.029-2.132,1.029-2.941,0
	l-6.438-8.205c-0.809-1.03-0.466-1.971,0.763-1.971h2.555c0.691,0,1.252-0.463,1.252-1.154V8.728c0-0.922-1.255-1.788-2.296-1.343
	c-0.003,0.001-0.005-0.002-0.007,0c-3.599,1.685-6.322,4.928-7.302,8.863c-4.011,0.608-7.087,4.062-7.087,8.241
	c0,4.61,3.736,8.347,8.345,8.347h25.04c3.688,0,6.68-2.989,6.68-6.676C40.032,22.471,37.041,19.48,33.353,19.48z"/>
<path fill="#565777" d="M32.052,20.63c0,0.008,0.008,0.022,0.009,0.031C32.055,20.574,32.052,20.548,32.052,20.63z"/>
<path fill="#565777" d="M40.023,20.658c0.001-0.008,0.008-0.021,0.008-0.028C40.031,20.55,40.028,20.574,40.023,20.658z"/>
</svg>
