<?xml version="1.0" encoding="utf-8"?>
<!-- Generator: Adobe Illustrator 15.0.0, SVG Export Plug-In . SVG Version: 6.00 Build 0)  -->
<!DOCTYPE svg PUBLIC "-//W3C//DTD SVG 1.1//EN" "http://www.w3.org/Graphics/SVG/1.1/DTD/svg11.dtd">
<svg version="1.1" id="Слой_1" xmlns="http://www.w3.org/2000/svg" xmlns:xlink="http://www.w3.org/1999/xlink" x="0px" y="0px"
	 width="40px" height="40px" viewBox="0 0 40 40" enable-background="new 0 0 40 40" xml:space="preserve">
<path fill="#565777" d="M32.053,20.63c0,0.009,0.008,0.022,0.008,0.031C32.055,20.574,32.053,20.548,32.053,20.63z"/>
<path fill="#565777" d="M40.023,20.658c0-0.008,0.008-0.021,0.008-0.028C40.031,20.55,40.027,20.574,40.023,20.658z"/>
<path fill="#565777" d="M37.757,13.611l-10.76-1.563L22.185,2.3c-0.423-0.854-1.288-1.393-2.239-1.393
	c-0.952,0-1.817,0.539-2.24,1.393l-4.81,9.748L2.137,13.611c-0.941,0.137-1.722,0.796-2.014,1.7
	c-0.294,0.903-0.05,1.894,0.631,2.558l7.786,7.588L6.703,36.174c-0.159,0.937,0.225,1.882,0.994,2.441
	c0.432,0.317,0.946,0.477,1.465,0.477c0.397,0,0.796-0.095,1.161-0.287l9.623-5.06l9.623,5.06c0.364,0.192,0.764,0.287,1.161,0.287
	c0.516,0,1.033-0.159,1.467-0.477c0.77-0.56,1.154-1.505,0.994-2.441l-1.838-10.717l7.786-7.588
	c0.679-0.661,0.924-1.655,0.632-2.558C39.476,14.407,38.694,13.748,37.757,13.611z"/>
</svg>
