<?xml version="1.0" encoding="utf-8"?>
<!-- Generator: Adobe Illustrator 15.0.0, SVG Export Plug-In . SVG Version: 6.00 Build 0)  -->
<!DOCTYPE svg PUBLIC "-//W3C//DTD SVG 1.1//EN" "http://www.w3.org/Graphics/SVG/1.1/DTD/svg11.dtd">
<svg version="1.1" id="Слой_1" xmlns="http://www.w3.org/2000/svg" xmlns:xlink="http://www.w3.org/1999/xlink" x="0px" y="0px"
	 width="40px" height="40px" viewBox="0 0 40 40" enable-background="new 0 0 40 40" xml:space="preserve">
<path fill="#565777" d="M40.866,23.674c0,0.009,0.008,0.022,0.008,0.031C40.868,23.618,40.866,23.592,40.866,23.674z"/>
<path fill="#565777" d="M40.866,23.702c0-0.008,0.008-0.021,0.008-0.028C40.874,23.594,40.87,23.618,40.866,23.702z"/>
<path fill="#565777" d="M31.001,20.2c-0.109-2.921-0.086-5.846,0.033-8.781c0.021-0.551,0.158-1.026,0.369-1.434
	c-0.047-0.928-0.127-1.854-0.252-2.777c-0.043-0.306-0.037-0.594-0.008-0.873h-8.939C22.3,6.066,22.36,5.782,22.36,5.481
	c0-1.416-1.146-2.562-2.561-2.562s-2.563,1.146-2.563,2.562c0,0.755,0.334,1.428,0.854,1.897v27.995
	c0,0.943,0.765,1.708,1.708,1.708c0.943,0,1.708-0.765,1.708-1.708V23.416h9.648C31.063,22.346,30.999,21.277,31.001,20.2z"/>
<path fill="#565777" d="M37.39,6.312h-8.438c0.26,5.69-0.248,11.358,0.266,17.081h8.172c1.416,0,2.563-1.147,2.563-2.563V8.873
	C39.952,7.458,38.806,6.312,37.39,6.312z"/>
<rect x="22.606" y="7.852" fill="#CACAE3" width="7.52" height="7.009"/>
<rect x="30.126" y="14.86" fill="#CACAE3" width="7.523" height="7.009"/>
<path fill="#565777" d="M15,36.516c0,0.313-0.253,0.565-0.565,0.565h-2.932c-0.313,0-0.565-0.253-0.565-0.565l0,0
	c0-0.313,0.253-0.565,0.565-0.565h2.932C14.747,35.95,15,36.203,15,36.516L15,36.516z"/>
<path fill="#565777" d="M8.557,35.849c-0.133,0.282-0.469,0.403-0.752,0.271l-2.653-1.246c-0.283-0.133-0.404-0.47-0.271-0.753l0,0
	c0.133-0.282,0.469-0.403,0.752-0.271l2.653,1.246C8.569,35.229,8.69,35.565,8.557,35.849L8.557,35.849z"/>
<path fill="#565777" d="M3.384,32.339c-0.208,0.233-0.565,0.252-0.798,0.044l-2.185-1.954c-0.233-0.208-0.253-0.565-0.044-0.799l0,0
	c0.208-0.233,0.565-0.252,0.798-0.045L3.34,31.54C3.573,31.748,3.593,32.105,3.384,32.339L3.384,32.339z"/>
</svg>
