<?xml version="1.0" encoding="utf-8"?>
<!-- Generator: Adobe Illustrator 15.0.0, SVG Export Plug-In . SVG Version: 6.00 Build 0)  -->
<!DOCTYPE svg PUBLIC "-//W3C//DTD SVG 1.1//EN" "http://www.w3.org/Graphics/SVG/1.1/DTD/svg11.dtd">
<svg version="1.1" id="Слой_1" xmlns="http://www.w3.org/2000/svg" xmlns:xlink="http://www.w3.org/1999/xlink" x="0px" y="0px"
	 width="40px" height="40px" viewBox="0 0 40 40" enable-background="new 0 0 40 40" xml:space="preserve">
<path fill="#575777" d="M39.905,14.803C39.796,8.689,34.841,3.244,28.719,3.244c-3.541,0-6.661,1.853-8.715,4.572
	c-2.053-2.719-5.183-4.572-8.714-4.572c-6.132,0-11.086,5.445-11.196,11.559H0.075c0,0.037,0.009,0.071,0.009,0.109
	c0,0.027-0.009,0.055-0.009,0.082c0,0.173,0.045,0.301,0.055,0.468c0.547,15.572,19.71,21.959,19.71,21.959
	s19.454-6.379,20.029-21.937c0.009-0.173,0.055-0.311,0.055-0.491c0-0.027-0.009-0.055-0.009-0.082c0-0.039,0.009-0.073,0.009-0.109
	H39.905z"/>
</svg>
