<?xml version="1.0" encoding="utf-8"?>
<!-- Generator: Adobe Illustrator 15.0.0, SVG Export Plug-In . SVG Version: 6.00 Build 0)  -->
<!DOCTYPE svg PUBLIC "-//W3C//DTD SVG 1.1//EN" "http://www.w3.org/Graphics/SVG/1.1/DTD/svg11.dtd">
<svg version="1.1" id="Слой_1" xmlns="http://www.w3.org/2000/svg" xmlns:xlink="http://www.w3.org/1999/xlink" x="0px" y="0px"
	 width="40px" height="40px" viewBox="0 0 40 40" enable-background="new 0 0 40 40" xml:space="preserve">
<path fill="#565777" d="M32.053,20.63c0,0.009,0.008,0.022,0.008,0.031C32.055,20.574,32.053,20.548,32.053,20.63z"/>
<path fill="#565777" d="M40.023,20.658c0-0.008,0.008-0.021,0.008-0.028C40.031,20.55,40.027,20.574,40.023,20.658z"/>
<path fill="#565777" d="M20,0C11.086,0,3.86,7.141,3.86,15.95C3.86,29.906,20,39.875,20,39.875s16.14-9.72,16.14-23.925
	C36.14,7.141,28.914,0,20,0z M20,22.786c-4.194,0-7.595-3.401-7.595-7.596S15.806,7.595,20,7.595s7.596,3.401,7.596,7.595
	S24.194,22.786,20,22.786z"/>
</svg>
