<?xml version="1.0" encoding="utf-8"?>
<!-- Generator: Adobe Illustrator 15.0.0, SVG Export Plug-In . SVG Version: 6.00 Build 0)  -->
<!DOCTYPE svg PUBLIC "-//W3C//DTD SVG 1.1//EN" "http://www.w3.org/Graphics/SVG/1.1/DTD/svg11.dtd">
<svg version="1.1" id="Слой_1" xmlns="http://www.w3.org/2000/svg" xmlns:xlink="http://www.w3.org/1999/xlink" x="0px" y="0px"
	 width="40px" height="40px" viewBox="0 0 40 40" enable-background="new 0 0 40 40" xml:space="preserve">
<path fill="#565777" d="M32.053,20.63c0,0.009,0.008,0.022,0.008,0.031C32.055,20.574,32.053,20.548,32.053,20.63z"/>
<path fill="#565777" d="M40.023,20.658c0-0.008,0.008-0.021,0.008-0.028C40.031,20.55,40.027,20.574,40.023,20.658z"/>
<path fill="#565777" d="M4.521,32.449c0,0.943,0.765,1.709,1.708,1.709s1.708-0.766,1.708-1.709V20.492H10.5h0.854h6.833v0.855
	c0,1.414,1.146,2.563,2.562,2.563h11.957c1.416,0,2.563-1.148,2.563-2.563V9.39c0-1.415-1.146-2.562-2.563-2.562H25.02h-1.188
	h-3.083c-0.491,0-0.947,0.145-1.336,0.385c1.085-0.709,4.403-2.744,4.419-3.508c0.003-0.183-0.185-0.294-0.642-0.294H11.354H10.5
	H8.635c0.095-0.269,0.156-0.553,0.156-0.854c0-1.416-1.146-2.562-2.562-2.562S3.667,1.142,3.667,2.558
	c0,0.755,0.334,1.428,0.854,1.897V32.449z M19.098,7.431c0.026-0.022,0.077-0.059,0.143-0.103c-0.083,0.06-0.161,0.125-0.236,0.194
	C19.037,7.493,19.063,7.458,19.098,7.431z M18.255,8.804c0.032-0.137,0.075-0.269,0.127-0.396c-0.056,0.134-0.097,0.275-0.131,0.42
	C18.254,8.82,18.253,8.811,18.255,8.804z"/>
<path fill="#565777" d="M15.254,36.725c-0.185,0.57-0.795,0.881-1.364,0.697l-4.546-1.471c-0.569-0.184-0.881-0.795-0.697-1.363l0,0
	c0.185-0.57,0.795-0.881,1.364-0.697l4.546,1.471C15.126,35.545,15.438,36.154,15.254,36.725L15.254,36.725z"/>
<path fill="#565777" d="M25.232,38.914c0.004,0.6-0.482,1.084-1.08,1.084l-4.778,0.006c-0.599,0.002-1.083-0.482-1.084-1.08l0,0
	c0-0.6,0.483-1.084,1.082-1.084l4.779-0.006C24.748,37.834,25.232,38.316,25.232,38.914L25.232,38.914z"/>
<path fill="#565777" d="M35.215,34.588c-0.184-0.57-0.795-0.881-1.363-0.697l-4.547,1.471c-0.568,0.184-0.881,0.793-0.697,1.363l0,0
	c0.186,0.57,0.795,0.881,1.363,0.697l4.547-1.471C35.088,35.768,35.398,35.156,35.215,34.588L35.215,34.588z"/>
</svg>
