<?xml version="1.0" encoding="utf-8"?>
<!-- Generator: Adobe Illustrator 15.0.0, SVG Export Plug-In . SVG Version: 6.00 Build 0)  -->
<!DOCTYPE svg PUBLIC "-//W3C//DTD SVG 1.1//EN" "http://www.w3.org/Graphics/SVG/1.1/DTD/svg11.dtd">
<svg version="1.1" id="Слой_1" xmlns="http://www.w3.org/2000/svg" xmlns:xlink="http://www.w3.org/1999/xlink" x="0px" y="0px"
	 width="40px" height="40px" viewBox="0 0 40 40" enable-background="new 0 0 40 40" xml:space="preserve">
<path fill="#575777" d="M20.043,0C8.971,0,0,8.97,0,20.042c0,11.071,8.971,20.042,20.043,20.042
	c11.069,0,20.035-8.971,20.035-20.042C40.078,8.97,31.112,0,20.043,0z M20.043,36.441c-9.045,0-16.397-7.357-16.397-16.4
	c0-9.043,7.352-16.395,16.397-16.395c9.041,0,16.396,7.352,16.396,16.395C36.439,29.084,29.084,36.441,20.043,36.441z"/>
<path fill="#575777" d="M21.863,19.285v-6.533c0-1.004-0.817-1.82-1.82-1.82c-1.009,0-1.826,0.816-1.826,1.82v8.046l7.821,7.82
	c0.358,0.352,0.824,0.532,1.291,0.532c0.463,0,0.929-0.181,1.286-0.532c0.713-0.712,0.713-1.865,0-2.578L21.863,19.285z"/>
</svg>
