<?xml version="1.0" encoding="utf-8"?>
<!-- Generator: Adobe Illustrator 15.0.0, SVG Export Plug-In . SVG Version: 6.00 Build 0)  -->
<!DOCTYPE svg PUBLIC "-//W3C//DTD SVG 1.1//EN" "http://www.w3.org/Graphics/SVG/1.1/DTD/svg11.dtd">
<svg version="1.1" id="Слой_1" xmlns="http://www.w3.org/2000/svg" xmlns:xlink="http://www.w3.org/1999/xlink" x="0px" y="0px"
	 width="40px" height="40px" viewBox="0 0 40 40" enable-background="new 0 0 40 40" xml:space="preserve">
<path fill="#575777" d="M25.203,25.803c2.283-1.83,4.105-4.774,5.105-7.946c1.027-1.314,1.627-2.68,1.627-3.837
	c0-0.794-0.291-1.366-0.793-1.79c-0.17-6.735-4.934-12.142-10.829-12.221C20.267,0.004,20.222,0,20.175,0
	c-0.018,0-0.033,0.002-0.052,0.002C14.268,0.031,9.504,5.324,9.22,11.967c-0.733,0.439-1.155,1.088-1.155,2.052
	c0,1.363,0.825,3.016,2.211,4.523c0.987,2.768,2.59,5.304,4.568,7.009c-0.296,1.901-1.413,4.189-4.732,5.634
	c-1.794,0.771-5.071,1.479-6.484,2.197c3.622,3.956,10.482,6.45,16.271,6.478h0.081c0.005,0,0.014,0,0.021,0
	c5.826,0,12.726-2.494,16.373-6.478c-1.414-0.718-4.693-1.426-6.486-2.197C26.719,29.804,25.553,27.659,25.203,25.803z"/>
</svg>
